<?xml version="1.0" encoding="UTF-8" standalone="no"?>
<svg
   height="744.2373"
   viewBox="0 -960 800 744.2373"
   width="800"
   version="1.1"
   id="svg1"
   sodipodi:docname="icon_normal.svg"
   inkscape:version="1.3 (0e150ed, 2023-07-21)"
   inkscape:export-filename="icon_normal.png"
   inkscape:export-xdpi="96"
   inkscape:export-ydpi="96"
   xmlns:inkscape="http://www.inkscape.org/namespaces/inkscape"
   xmlns:sodipodi="http://sodipodi.sourceforge.net/DTD/sodipodi-0.dtd"
   xmlns="http://www.w3.org/2000/svg"
   xmlns:svg="http://www.w3.org/2000/svg">
  <defs
     id="defs1">
    <inkscape:path-effect
       effect="fillet_chamfer"
       id="path-effect1"
       is_visible="true"
       lpeversion="1"
       nodesatellites_param="F,0,0,1,0,0,0,1 @ F,0,0,1,0,0,0,1 @ F,0,0,1,0,0,0,1 @ F,0,0,1,0,0,0,1 @ F,0,0,1,0,0,0,1 @ F,0,0,1,0,0,0,1 @ F,0,0,1,0,0,0,1 @ F,0,0,1,0,0,0,1 @ F,0,0,1,0,0,0,1 @ F,0,0,1,0,0,0,1 @ F,0,0,1,0,0,0,1 @ F,0,0,1,0,0,0,1 @ F,0,0,1,0,0,0,1 | F,0,0,1,0,0,0,1 @ F,0,0,1,0,68.137545,0,1 @ F,0,1,1,0,68.137545,0,1 @ F,0,1,1,0,68.137545,0,1 @ F,0,0,1,0,0,0,1 | F,0,0,1,0,0,0,1 @ F,0,1,1,0,68.137545,0,1"
       radius="0"
       unit="px"
       method="auto"
       mode="F"
       chamfer_steps="1"
       flexible="false"
       use_knot_distance="true"
       apply_no_radius="true"
       apply_with_radius="true"
       only_selected="false"
       hide_knots="false" />
  </defs>
  <sodipodi:namedview
     id="namedview1"
     pagecolor="#ffffff"
     bordercolor="#000000"
     borderopacity="0.25"
     inkscape:showpageshadow="2"
     inkscape:pageopacity="0.0"
     inkscape:pagecheckerboard="0"
     inkscape:deskcolor="#d1d1d1"
     inkscape:zoom="0.51584138"
     inkscape:cx="346.03661"
     inkscape:cy="131.82347"
     inkscape:window-width="1392"
     inkscape:window-height="949"
     inkscape:window-x="2448"
     inkscape:window-y="25"
     inkscape:window-maximized="0"
     inkscape:current-layer="svg1" />
  <path
     d="m 240,-240 -92,92 c -12.66667,12.66667 -27.16667,15.5 -43.5,8.5 C 88.166667,-146.5 80,-159 80,-177 v -623 c 0,-22 7.833333,-40.83333 23.5,-56.5 15.66667,-15.66667 34.5,-23.5 56.5,-23.5 h 640 c 22,0 40.83333,7.83333 56.5,23.5 15.66667,15.66667 23.5,34.5 23.5,56.5 v 480 c 0,22 -7.83333,40.83333 -23.5,56.5 -15.66667,15.66667 -34.5,23.5 -56.5,23.5 z m -34,-80 H 731.86245 A 68.137545,68.137545 135 0 0 800,-388.13754 V -731.86245 A 68.137545,68.137545 45 0 0 731.86245,-800 H 228.13755 A 68.137545,68.137545 135 0 0 160,-731.86245 L 160,-275 Z m -46,0 v -411.86245 a 0,0 0 0 1 0,0 z"
     id="path1"
     inkscape:path-effect="#path-effect1"
     inkscape:original-d="m 240,-240 -92,92 q -19,19 -43.5,8.5 Q 80,-150 80,-177 v -623 q 0,-33 23.5,-56.5 Q 127,-880 160,-880 h 640 q 33,0 56.5,23.5 23.5,23.5 23.5,56.5 v 480 q 0,33 -23.5,56.5 Q 833,-240 800,-240 Z m -34,-80 H 800 V -800 H 160 v 525 z m -46,0 v -480 z"
     transform="translate(-80,-80)" />
  <g
     id="masterlayer"
     style="filter:url(#filter4346)"
     inkscape:label="Master Layer"
     transform="matrix(2.2797316,0,0,2.2797316,156.83418,-888.37741)">
    <g
       inkscape:groupmode="layer"
       id="layer2"
       inkscape:label="Ebene 2">
      <rect
         style="opacity:1;fill:#bfbfbf;stroke-width:0.328676"
         id="rect3857"
         width="120"
         height="120"
         x="80"
         y="80"
         rx="12"
         ry="12" />
      <g
         aria-label="S"
         id="text55"
         style="font-weight:bold;font-size:120px;font-family:Ubuntu;text-anchor:middle;fill:#ffffff">
        <path
           d="m 139.36007,165.72 q 3.96,0 6.48,-0.6 2.64,-0.72 4.2,-1.8 1.56,-1.2 2.16,-2.76 0.6,-1.56 0.6,-3.48 0,-4.08 -3.84,-6.72 -3.84,-2.76 -13.2,-5.88 -4.08,-1.44 -8.16,-3.24 -4.08,-1.92 -7.32,-4.68 -3.24,-2.88 -5.28,-6.84 -2.04,-4.08 -2.04,-9.84 0,-5.76 2.16,-10.32 2.16,-4.68 6.12,-7.92 3.96,-3.24 9.6,-4.92 5.64,-1.8 12.72,-1.8 8.4,0 14.52,1.8 6.12,1.8 10.08,3.96 l -5.4,14.76 q -3.48,-1.8 -7.8,-3.12 -4.2,-1.44 -10.2,-1.44 -6.72,0 -9.72,1.92 -2.88,1.8 -2.88,5.64 0,2.28 1.08,3.84 1.08,1.56 3,2.88 2.04,1.2 4.56,2.28 2.64,0.96 5.76,2.04 6.48,2.4 11.28,4.8 4.8,2.28 7.92,5.4 3.24,3.12 4.8,7.32 1.56,4.2 1.56,10.2 0,11.64 -8.16,18.12 -8.16,6.36 -24.6,6.36 -5.52,0 -9.96,-0.72 -4.44,-0.6 -7.92,-1.56 -3.36,-0.96 -5.88,-2.04 -2.4,-1.08 -4.08,-2.04 l 5.28,-14.88 q 3.72,2.04 9.12,3.72 5.52,1.56 13.44,1.56 z"
           id="path2991" />
      </g>
    </g>
    <g
       inkscape:groupmode="layer"
       id="layer3"
       style="filter:url(#filter4346)"
       inkscape:label="Ebene 3">
      <rect
         style="opacity:1;fill:#ffcc00;stroke-width:0.328676"
         id="rect58"
         width="62"
         height="62"
         x="78"
         y="78"
         rx="12"
         ry="12" />
    </g>
    <g
       inkscape:label="Ebene 1"
       inkscape:groupmode="layer"
       id="layer1">
      <rect
         style="opacity:1;fill:#ffcc00;stroke-width:0.361053"
         id="rect3855"
         width="120"
         height="120"
         x="20"
         y="20"
         rx="12"
         ry="12" />
      <g
         aria-label="G"
         id="text62"
         style="font-weight:bold;font-size:120px;font-family:Ubuntu;text-anchor:middle;fill:#ffffff">
        <path
           d="m 85.04002,52.24 q -13.08,0 -18.96,7.32 -5.76,7.2 -5.76,19.8 0,6.12 1.44,11.16 1.44,4.92 4.32,8.52 2.88,3.6 7.2,5.64 4.32,1.92 10.08,1.92 3.12,0 5.28,-0.12 2.28,-0.12 3.96,-0.48 V 77.08 h 18.72 v 41.16 q -3.36,1.32 -10.8,2.76 -7.44,1.56 -18.36,1.56 -9.36,0 -17.04,-2.88 -7.56,-2.88 -12.96,-8.4 -5.4,-5.52 -8.4,-13.56 -2.88,-8.04 -2.88,-18.36 0,-10.44 3.24,-18.48 3.24,-8.04 8.88,-13.56 5.64,-5.64 13.2,-8.52 7.68,-2.88 16.32,-2.88 5.88,0 10.56,0.84 4.8,0.72 8.16,1.8 3.48,0.96 5.64,2.04 2.28,1.08 3.24,1.68 l -5.4,15 q -3.84,-2.04 -8.88,-3.48 -4.92,-1.56 -10.8,-1.56 z"
           id="path67" />
      </g>
    </g>
  </g>
</svg>
